# xmcd
#
# Track frame offsets:
#	150
#	15557
#	29022
#	44372
#	58657
#	72490
#	85682
#	98692
#	114712
#	126515
#	141002
#	155352
#	168425
#	183010
#	197947
#	211225
#	224220
#	237610
#	252050
#
# Disc length: 3545 seconds
#
# Revision: 1
# Processed by: cddbd v1.5.2PL0 Copyright (c) Steve Scherf et al.
# Submitted via: audiograbber 1.83.01
#
DISCID=1b0dd713
DTITLE=Various Artist - St. Louis Girls (1929-1937)
DYEAR=1900
DGENRE=Blues
TTITLE0=Mae Belle Miller - Trouble Everywhere Blues (1929)
TTITLE1=Mae Belle Miller - Working Man on the Seas (1929)
TTITLE2=Mae Belle Miller - Beale and Main Blues (1929)
TTITLE3=Mae Belle Miller - Long Tall Man Blues (1929)
TTITLE4=Mary Johnson - Black Men Blues (1929)
TTITLE5=Mary Johnson - Mean Black Man Blues (1929)
TTITLE6=Mary Johnson - Morning Sun Blues (1930)
TTITLE7=Elizabeth Washington - Riot Call Blues (1933)
TTITLE8=Elizabeth Washington - You Put That Thing On Me (1933)
TTITLE9=Dorotha Trowbridge - Bad Luck Blues (1933)
TTITLE10=Dorotha Trowbridge - Slavin' Mama Blues (1933)
TTITLE11=Alice Moore - Black Evil Blues (1934)
TTITLE12=Alice Moore - Daddy Calling Mama (1935)
TTITLE13=Alice Moore - Blue Black and Evil Blues (1935)
TTITLE14=Alice Moore - Hand In Hand Women (1937)
TTITLE15=Alice Moore - Doggin' Man Blues (1937)
TTITLE16=Alice Moore - Tired Of Me Blues (1937)
TTITLE17=Alice Moore - Too Many Men (1937)
TTITLE18=Alice Moore - Don't Deny Me Baby (1937)
EXTD=
EXTT0=
EXTT1=
EXTT2=
EXTT3=
EXTT4=
EXTT5=
EXTT6=
EXTT7=
EXTT8=
EXTT9=
EXTT10=
EXTT11=
EXTT12=
EXTT13=
EXTT14=
EXTT15=
EXTT16=
EXTT17=
EXTT18=
PLAYORDER=
